<svg id="mouth" xmlns="http://www.w3.org/2000/svg" viewBox="0 0 396 89" width="396" height="89"
	style="
		--mouth-color: #a25737;
	"
>
	<style>
		tspan { white-space:pre }
		.mouth-outside { fill: var(--mouth-color);stroke: #000000;stroke-width: 4.4 }
		.mouth-line { fill: none;stroke: #000000;stroke-width: 4.4 } 
	</style>
	<g id="Mouth">
		<path id="mouth-outside" class="mouth-outside" d="M3 45C3 45 4 3.45 43 3C82 2.55 111 16.45 273 30C286.5 29.55 354 22.95 379 6C386 4.05 399.5 12.45 390 30C385 34.55 368 42.95 366 45C364 47.05 366 49.95 368 54C370 58.05 379 72.45 353 81C327 89.55 247.5 87.45 181 80C114.5 72.55 126.5 65.95 78 63C29.5 60.05 24 61.95 16 60C8 58.05 3 45 3 45Z" />
		<path id="mouth-line" class="mouth-line" d="M363 46C363 46 297 52.95 271 53C245 53.05 206 58.95 140 44C74 29.05 49 30.45 43 31" />
	</g>
</svg>
